<?xml version="1.0" encoding="UTF-8"?>
<svg version="1.1" viewBox="0 0 210 210" xmlns="http://www.w3.org/2000/svg">
	<path fill="#615CED" d="m212 127.1-24.2-42-2.9-5 12.8-22.1c0.4-0.8 0.7-1.6 0.7-2.5s-0.2-1.7-0.7-2.5l-14.3-24.7c-0.4-0.8-1.1-1.4-1.8-1.8s-1.6-0.7-2.5-0.7h-54.2l-12.8-22.1c-0.9-1.5-2.5-2.5-4.3-2.5h-28.4c-0.9 0-1.7 0.2-2.5 0.7-0.7 0.4-1.4 1-1.8 1.8l-24.3 42-2.9 4.9h-25.6c-0.9 0-1.7 0.2-2.5 0.7-0.7 0.4-1.4 1-1.8 1.8l-14.3 24.7c-0.4 0.8-0.7 1.6-0.7 2.5s0.2 1.7 0.7 2.5l27.1 47-12.8 22.1c-0.4 0.8-0.7 1.6-0.7 2.5s0.2 1.7 0.7 2.5l14.3 24.7c0.4 0.8 1.1 1.4 1.8 1.8s1.6 0.7 2.5 0.7h54.2l12.8 22.2c0.9 1.5 2.5 2.5 4.3 2.5h28.5c0.9 0 1.7-0.2 2.5-0.7 0.7-0.4 1.4-1 1.8-1.8l27.1-47h25.7c0.9 0 1.7-0.2 2.5-0.7 0.7-0.4 1.4-1 1.8-1.8l14.3-24.7c0.4-0.8 0.7-1.6 0.7-2.5-0.2-0.8-0.4-1.7-0.8-2.5z"/>
	<path fill="#FFFFFF" d="M79.4,6.1l14.2,24.8L79.4,55.6h114l-14.2,24.7H70.8L53.7,50.6L79.4,6.1z M22.3,55.6h28.5l54.2,93.9L87.9,179  H36.6l14.2-24.7h28.6L22.3,55.6z M93.6,179l14.3,24.8l57.1-98.9l14.2,24.7h28.6L182,85.2h-34.2L93.6,179z" />
</svg>
